<mxfile host="app.diagrams.net" modified="2024-01-26T20:47:42.891Z" agent="Mozilla/5.0 (X11; Linux x86_64) AppleWebKit/537.36 (KHTML, like Gecko) Chrome/120.0.0.0 Safari/537.36" etag="NBWj56RPuONFy8SfcnBA" version="23.0.2" type="device">
  <diagram name="Page-1" id="JLWezIBTaw8F2M-q6U4Q">
    <mxGraphModel dx="1434" dy="820" grid="1" gridSize="10" guides="1" tooltips="1" connect="1" arrows="1" fold="1" page="1" pageScale="1" pageWidth="850" pageHeight="1100" math="0" shadow="0">
      <root>
        <mxCell id="0" />
        <mxCell id="1" parent="0" />
        <mxCell id="AqxLSdIw5TgUe_aSQq6c-17" style="edgeStyle=orthogonalEdgeStyle;rounded=0;orthogonalLoop=1;jettySize=auto;html=1;entryX=0.5;entryY=0;entryDx=0;entryDy=0;" edge="1" parent="1" source="AqxLSdIw5TgUe_aSQq6c-15" target="AqxLSdIw5TgUe_aSQq6c-5">
          <mxGeometry relative="1" as="geometry" />
        </mxCell>
        <mxCell id="AqxLSdIw5TgUe_aSQq6c-15" value="" style="rounded=0;whiteSpace=wrap;html=1;" vertex="1" parent="1">
          <mxGeometry x="300" y="105" width="300" height="190" as="geometry" />
        </mxCell>
        <mxCell id="AqxLSdIw5TgUe_aSQq6c-1" value="Aircrafts" style="shape=cylinder3;whiteSpace=wrap;html=1;boundedLbl=1;backgroundOutline=1;size=15;" vertex="1" parent="1">
          <mxGeometry x="350" y="160" width="60" height="80" as="geometry" />
        </mxCell>
        <mxCell id="AqxLSdIw5TgUe_aSQq6c-2" value="Students" style="shape=cylinder3;whiteSpace=wrap;html=1;boundedLbl=1;backgroundOutline=1;size=15;" vertex="1" parent="1">
          <mxGeometry x="510" y="160" width="60" height="80" as="geometry" />
        </mxCell>
        <mxCell id="AqxLSdIw5TgUe_aSQq6c-3" value="Controller" style="whiteSpace=wrap;html=1;aspect=fixed;" vertex="1" parent="1">
          <mxGeometry x="120" y="350" width="160" height="160" as="geometry" />
        </mxCell>
        <mxCell id="AqxLSdIw5TgUe_aSQq6c-4" value="Service" style="whiteSpace=wrap;html=1;aspect=fixed;" vertex="1" parent="1">
          <mxGeometry x="380" y="350" width="160" height="160" as="geometry" />
        </mxCell>
        <mxCell id="AqxLSdIw5TgUe_aSQq6c-16" style="edgeStyle=orthogonalEdgeStyle;rounded=0;orthogonalLoop=1;jettySize=auto;html=1;entryX=1;entryY=0.5;entryDx=0;entryDy=0;" edge="1" parent="1" source="AqxLSdIw5TgUe_aSQq6c-5" target="AqxLSdIw5TgUe_aSQq6c-15">
          <mxGeometry relative="1" as="geometry">
            <Array as="points">
              <mxPoint x="720" y="200" />
            </Array>
          </mxGeometry>
        </mxCell>
        <mxCell id="AqxLSdIw5TgUe_aSQq6c-5" value="Persistence" style="whiteSpace=wrap;html=1;aspect=fixed;" vertex="1" parent="1">
          <mxGeometry x="640" y="350" width="160" height="160" as="geometry" />
        </mxCell>
        <mxCell id="AqxLSdIw5TgUe_aSQq6c-6" value="Configuration" style="whiteSpace=wrap;html=1;aspect=fixed;" vertex="1" parent="1">
          <mxGeometry x="370" y="550" width="160" height="160" as="geometry" />
        </mxCell>
        <mxCell id="AqxLSdIw5TgUe_aSQq6c-7" value="Properties" style="rounded=0;whiteSpace=wrap;html=1;" vertex="1" parent="1">
          <mxGeometry x="370" y="690" width="160" height="20" as="geometry" />
        </mxCell>
        <mxCell id="AqxLSdIw5TgUe_aSQq6c-9" value="Migrations" style="rounded=0;whiteSpace=wrap;html=1;" vertex="1" parent="1">
          <mxGeometry x="370" y="670" width="160" height="20" as="geometry" />
        </mxCell>
        <mxCell id="AqxLSdIw5TgUe_aSQq6c-12" value="" style="endArrow=classic;html=1;rounded=0;exitX=1;exitY=0.25;exitDx=0;exitDy=0;entryX=0;entryY=0.25;entryDx=0;entryDy=0;" edge="1" parent="1" source="AqxLSdIw5TgUe_aSQq6c-3" target="AqxLSdIw5TgUe_aSQq6c-4">
          <mxGeometry width="50" height="50" relative="1" as="geometry">
            <mxPoint x="400" y="450" as="sourcePoint" />
            <mxPoint x="450" y="400" as="targetPoint" />
          </mxGeometry>
        </mxCell>
        <mxCell id="AqxLSdIw5TgUe_aSQq6c-13" value="" style="endArrow=classic;html=1;rounded=0;exitX=1;exitY=0.25;exitDx=0;exitDy=0;entryX=0;entryY=0.25;entryDx=0;entryDy=0;" edge="1" parent="1">
          <mxGeometry width="50" height="50" relative="1" as="geometry">
            <mxPoint x="540" y="400" as="sourcePoint" />
            <mxPoint x="640" y="400" as="targetPoint" />
          </mxGeometry>
        </mxCell>
        <mxCell id="AqxLSdIw5TgUe_aSQq6c-18" value="" style="endArrow=classic;html=1;rounded=0;exitX=0;exitY=0.75;exitDx=0;exitDy=0;entryX=1;entryY=0.75;entryDx=0;entryDy=0;" edge="1" parent="1" source="AqxLSdIw5TgUe_aSQq6c-5" target="AqxLSdIw5TgUe_aSQq6c-4">
          <mxGeometry width="50" height="50" relative="1" as="geometry">
            <mxPoint x="600" y="590" as="sourcePoint" />
            <mxPoint x="610" y="500" as="targetPoint" />
          </mxGeometry>
        </mxCell>
        <mxCell id="AqxLSdIw5TgUe_aSQq6c-19" value="" style="endArrow=classic;html=1;rounded=0;exitX=0;exitY=0.75;exitDx=0;exitDy=0;entryX=1;entryY=0.75;entryDx=0;entryDy=0;" edge="1" parent="1">
          <mxGeometry width="50" height="50" relative="1" as="geometry">
            <mxPoint x="380" y="470" as="sourcePoint" />
            <mxPoint x="280" y="470" as="targetPoint" />
          </mxGeometry>
        </mxCell>
      </root>
    </mxGraphModel>
  </diagram>
</mxfile>
